<svg width="48" height="48" viewBox="0 0 48 48" fill="none" xmlns="http://www.w3.org/2000/svg">
<path d="M2 0C0.894531 0 0 0.894531 0 2C0 3.10547 0.894531 4 2 4C3.10547 4 4 3.10547 4 2H8.65625C10.7422 2 11.543 2.66797 12.2188 4.9375L20.2188 37.2188C20.6445 38.8281 21.125 40.6094 22.9375 41.4688C22.3672 42.1602 22 43.0352 22 44C22 46.207 23.793 48 26 48C28.207 48 30 46.207 30 44C30 43.2695 29.7812 42.5898 29.4375 42H35.5625C35.2188 42.5898 35 43.2695 35 44C35 46.207 36.793 48 39 48C41.207 48 43 46.207 43 44C43 42.9609 42.5898 42.0234 41.9375 41.3125C41.9727 41.2109 42 41.1133 42 41C42 40.4492 41.5508 40 41 40H25.7188C23.0234 40 22.7305 38.9219 22.1562 36.75L21.4688 34H39.8125C40.2266 34 40.6055 33.7305 40.75 33.3438L47.9375 14.3438C48.0547 14.0391 47.9961 13.707 47.8125 13.4375C47.6289 13.168 47.3242 13 47 13H16.2812L14.1562 4.40625C13.4766 2.11719 12.3203 0 8.65625 0H2ZM26 42C27.1016 42 28 42.8984 28 44C28 45.1016 27.1016 46 26 46C24.8984 46 24 45.1016 24 44C24 42.8984 24.8984 42 26 42ZM39 42C40.1016 42 41 42.8984 41 44C41 45.1016 40.1016 46 39 46C37.8984 46 37 45.1016 37 44C37 42.8984 37.8984 42 39 42Z" fill="#EEC89B"/>
</svg>
